<?xml version="1.0" standalone="no"?>
<!DOCTYPE svg PUBLIC "-//W3C//DTD SVG 20010904//EN"
 "http://www.w3.org/TR/2001/REC-SVG-20010904/DTD/svg10.dtd">
<svg version="1.0" xmlns="http://www.w3.org/2000/svg"
 width="80.000000pt" height="80.000000pt" viewBox="0 0 80.000000 80.000000"
 preserveAspectRatio="xMidYMid meet">
<metadata>
Created by potrace 1.11, written by Peter Selinger 2001-2013
</metadata>
<g transform="translate(0.000000,80.000000) scale(0.100000,-0.100000)"
fill="#000000" stroke="none">
<path d="M351 740 c-117 -76 -221 -191 -283 -313 -58 -115 -69 -97 109 -185
l156 -79 -54 -8 c-62 -9 -96 -9 -159 0 -25 4 -57 2 -72 -4 -25 -10 -28 -15
-28 -61 l0 -50 380 0 380 0 0 54 0 55 -45 6 c-24 4 -66 2 -92 -4 -36 -8 -61
-7 -102 2 l-54 13 32 27 c27 22 42 27 87 27 62 0 66 4 109 117 37 97 34 103
-61 103 -70 0 -79 3 -114 30 -21 17 -43 30 -49 30 -6 0 -12 10 -12 23 -4 74
-43 242 -59 252 -4 3 -35 -13 -69 -35z m169 -350 c20 -16 47 -29 62 -30 26 0
26 -2 17 -30 -9 -25 -16 -30 -42 -30 -46 0 -151 -101 -143 -136 5 -19 2 -24
-13 -24 -19 0 -18 4 9 64 33 73 71 201 62 210 -3 3 -1 6 4 6 5 0 25 -13 44
-30z"/>
<path d="M656 544 c-31 -30 -9 -84 34 -84 24 0 50 26 50 50 0 43 -54 65 -84
34z"/>
</g>
</svg>
